<svg width="120" height="120" viewBox="0 0 352 352" version="1.1" xmlns="http://www.w3.org/2000/svg" xmlns:xlink="http://www.w3.org/1999/xlink" xml:space="preserve" xmlns:serif="http://www.serif.com/" style="fill-rule:evenodd;clip-rule:evenodd;stroke-linejoin:round;stroke-miterlimit:2;">
    <g transform="matrix(1,0,0,1,-86.5293,-163.271)">
        <g id="Zahnrad-1" serif:id="Zahnrad 1" transform="matrix(0.727033,0,0,0.774084,-194.753,184.795)">
            <path d="M562.135,150.84C553.287,150.033 544.377,150.033 535.53,150.84L531.148,170.876C522.668,172.094 514.356,174.186 506.363,177.113L491.903,161.819C483.81,165.275 476.094,169.459 468.862,174.313L475.733,193.722C469.038,198.76 462.953,204.475 457.59,210.763L436.924,204.309C431.756,211.102 427.301,218.35 423.622,225.95L439.905,239.532C436.789,247.039 434.562,254.845 433.264,262.81L411.932,266.925C411.072,275.235 411.072,283.604 411.932,291.913L433.264,296.029C434.562,303.994 436.789,311.8 439.905,319.307L423.622,332.889C427.301,340.489 431.756,347.736 436.924,354.529L457.59,348.075C462.953,354.364 469.038,360.078 475.733,365.116L468.862,384.525C476.094,389.379 483.81,393.564 491.903,397.019L506.363,381.726C514.356,384.653 522.668,386.744 531.148,387.963L535.53,407.999C544.377,408.806 553.287,408.806 562.135,407.999L566.517,387.963C574.997,386.744 583.309,384.653 591.301,381.726L605.762,397.019C613.854,393.564 621.571,389.379 628.803,384.525L621.932,365.116C628.627,360.078 634.711,354.364 640.075,348.075L660.74,354.529C665.909,347.736 670.364,340.489 674.043,332.889L657.76,319.307C660.876,311.8 663.103,303.994 664.401,296.029L685.733,291.913C686.593,283.604 686.593,275.235 685.733,266.925L664.401,262.81C663.103,254.845 660.876,247.039 657.76,239.532L674.043,225.95C670.364,218.35 665.909,211.102 660.74,204.309L640.075,210.763C634.711,204.475 628.627,198.76 621.932,193.722L628.803,174.313C621.571,169.459 613.854,165.275 605.762,161.819L591.301,177.113C583.309,174.186 574.997,172.094 566.517,170.876L562.135,150.84ZM548.832,191.386C600.564,191.386 642.563,230.832 642.563,279.419C642.563,328.006 600.564,367.452 548.832,367.452C497.101,367.452 455.102,328.006 455.102,279.419C455.102,230.832 497.101,191.386 548.832,191.386Z" style="fill:rgb(105,105,105);"/>
        </g>
        <g id="Zahnrad-11" serif:id="Zahnrad 1" transform="matrix(0.245354,0.360679,-0.384021,0.261232,301.314,54.1667)">
            <path d="M571.568,152.011C556.516,149.642 541.149,149.642 526.097,152.011L522.46,186.421C509.98,189.543 498.241,194.852 487.861,202.07L456.95,183.287C445.593,192.862 436.012,204.147 428.599,216.677L454.975,240.802C449.792,251.912 446.893,263.843 446.43,275.965L411.521,286.952C412.411,301.262 415.831,315.333 421.639,328.588L458.167,324.262C464.184,334.995 472.308,344.562 482.11,352.461L469.491,384.945C481.958,393.214 495.803,399.476 510.459,403.475L529.632,373.955C542.318,376.228 555.347,376.228 568.033,373.955L587.206,403.475C601.862,399.476 615.707,393.214 628.174,384.945L615.555,352.461C625.357,344.562 633.481,334.995 639.498,324.262L676.025,328.588C681.834,315.333 685.254,301.262 686.144,286.952L651.235,275.965C650.772,263.843 647.872,251.912 642.69,240.802L669.066,216.677C661.653,204.147 652.072,192.862 640.715,183.287L609.804,202.07C599.424,194.852 587.685,189.543 575.205,186.421L571.568,152.011ZM548.832,207.873C590.876,207.873 625.009,239.932 625.009,279.419C625.009,318.907 590.876,350.966 548.832,350.966C506.789,350.966 472.656,318.907 472.656,279.419C472.656,239.932 506.789,207.873 548.832,207.873Z" style="fill:rgb(105,105,105);"/>
        </g>
        <g id="Zahnrad-12" serif:id="Zahnrad 1" transform="matrix(0.045257,0.433866,-0.461944,0.0481858,375.45,-14.8908)">
            <path d="M571.568,152.011C556.516,149.642 541.149,149.642 526.097,152.011L522.46,186.421C509.98,189.543 498.241,194.852 487.861,202.07L456.95,183.287C445.593,192.862 436.012,204.147 428.599,216.677L454.975,240.802C449.792,251.912 446.893,263.843 446.43,275.965L411.521,286.952C412.411,301.262 415.831,315.333 421.639,328.588L458.167,324.262C464.184,334.995 472.308,344.562 482.11,352.461L469.491,384.945C481.958,393.214 495.803,399.476 510.459,403.475L529.632,373.955C542.318,376.228 555.347,376.228 568.033,373.955L587.206,403.475C601.862,399.476 615.707,393.214 628.174,384.945L615.555,352.461C625.357,344.562 633.481,334.995 639.498,324.262L676.025,328.588C681.834,315.333 685.254,301.262 686.144,286.952L651.235,275.965C650.772,263.843 647.872,251.912 642.69,240.802L669.066,216.677C661.653,204.147 652.072,192.862 640.715,183.287L609.804,202.07C599.424,194.852 587.685,189.543 575.205,186.421L571.568,152.011ZM548.832,206.553C591.651,206.553 626.415,239.203 626.415,279.419C626.415,319.635 591.651,352.286 548.832,352.286C506.014,352.286 471.25,319.635 471.25,279.419C471.25,239.203 506.014,206.553 548.832,206.553Z" style="fill:rgb(105,105,105);"/>
        </g>
        <g transform="matrix(0.920731,0,0,0.956142,40.4532,18.8894)">
            <rect x="50.043" y="151.005" width="382.16" height="368.007" style="fill:rgb(105,105,105);fill-opacity:0;"/>
        </g>
    </g>
</svg>