<svg width="120" height="120" viewBox="0 0 527 520" version="1.1" xmlns="http://www.w3.org/2000/svg" xmlns:xlink="http://www.w3.org/1999/xlink" xml:space="preserve" xmlns:serif="http://www.serif.com/" style="fill-rule:evenodd;clip-rule:evenodd;stroke-linecap:round;stroke-linejoin:round;stroke-miterlimit:1.5;">
    <g transform="matrix(1,0,0,1,-23.8086,-56.9189)">
        <g transform="matrix(0.76492,0,0,0.761738,3.2758,65.1097)">
            <rect x="592.528" y="431.825" width="91.589" height="110.659" style="fill:rgb(124,124,124);stroke:rgb(196,196,196);stroke-opacity:0;stroke-width:31.44px;"/>
        </g>
        <g transform="matrix(0.76492,0,0,0.761738,2.8276,56.059)">
            <rect x="55.057" y="425.882" width="606.111" height="118.405" style="fill:rgb(124,124,124);stroke:rgb(196,196,196);stroke-opacity:0;stroke-width:31.44px;"/>
        </g>
        <g transform="matrix(1.47007,0,0,1.2343,-36.2841,-145.574)">
            <path d="M150.002,327.273L244.538,426.685L55.466,426.685L150.002,327.273Z" style="fill:rgb(124,124,124);stroke:rgb(196,196,196);stroke-opacity:0;stroke-width:17.68px;"/>
        </g>
        <g transform="matrix(0.456322,0,0,0.383136,115.78,132.987)">
            <path d="M150.002,327.273L244.538,426.685L55.466,426.685L150.002,327.273Z" style="fill:rgb(247,247,247);stroke:rgb(112,112,112);stroke-width:2.37px;"/>
        </g>
        <g transform="matrix(1.06644,0,0,0.895399,100.599,11.5074)">
            <path d="M150.002,327.273L244.538,426.685L55.466,426.685L150.002,327.273Z" style="fill:rgb(124,124,124);stroke:rgb(196,196,196);stroke-opacity:0;stroke-width:24.37px;"/>
        </g>
        <g transform="matrix(0.331031,0,0,0.27794,210.911,213.585)">
            <path d="M150.002,327.273L244.538,426.685L55.466,426.685L150.002,327.273Z" style="fill:rgb(247,247,247);stroke:rgb(112,112,112);stroke-width:3.27px;"/>
        </g>
        <g transform="matrix(1.68805,0,0,1.2343,125.89,-128.544)">
            <path d="M150.002,327.273L244.538,426.685L55.466,426.685L150.002,327.273Z" style="fill:rgb(124,124,124);stroke:rgb(196,196,196);stroke-opacity:0;stroke-width:16.23px;"/>
        </g>
        <g transform="matrix(0.384108,0,0,0.280858,321.484,185.014)">
            <path d="M150.002,327.273L244.538,426.685L55.466,426.685L150.002,327.273Z" style="fill:rgb(247,247,247);stroke:rgb(112,112,112);stroke-width:2.97px;"/>
        </g>
        <g transform="matrix(0.76492,0,0,0.761738,2.8276,56.059)">
            <rect x="46.86" y="129.106" width="641.304" height="419.766" style="fill:rgb(235,235,235);fill-opacity:0;stroke:rgb(196,196,196);stroke-width:31.44px;"/>
        </g>
        <g transform="matrix(0.76492,0,0,0.761738,58.5656,51.7481)">
            <path d="M455.43,178.62C458.556,173.498 471.145,169.516 485.903,169.516C500.66,169.516 513.25,173.498 516.376,178.62C528.327,176.405 543.952,177.863 553.154,182.482C562.355,187.101 562.428,193.525 554.374,197.697C566.152,200.056 573.047,205.856 569.763,211.616C566.479,217.377 553.981,221.404 540.813,221.485C543.547,226.642 536.52,232.417 523.224,234.98C509.928,237.544 494.27,236.143 485.903,232.071C477.536,236.143 461.877,237.544 448.581,234.98C435.285,232.417 428.258,226.642 430.993,221.485C417.824,221.404 405.326,217.377 402.042,211.616C398.758,205.856 405.654,200.056 417.431,197.697C409.378,193.525 409.451,187.101 418.652,182.482C427.853,177.863 443.479,176.405 455.43,178.62Z" style="fill:white;stroke:rgb(112,112,112);stroke-width:1.31px;"/>
        </g>
        <g transform="matrix(0.76492,0,0,0.761738,-25.072,65.2926)">
            <path d="M455.43,178.62C458.556,173.498 471.145,169.516 485.903,169.516C500.66,169.516 513.25,173.498 516.376,178.62C528.327,176.405 543.952,177.863 553.154,182.482C562.355,187.101 562.428,193.525 554.374,197.697C566.152,200.056 573.047,205.856 569.763,211.616C566.479,217.377 553.981,221.404 540.813,221.485C543.547,226.642 536.52,232.417 523.224,234.98C509.928,237.544 494.27,236.143 485.903,232.071C477.536,236.143 461.877,237.544 448.581,234.98C435.285,232.417 428.258,226.642 430.993,221.485C417.824,221.404 405.326,217.377 402.042,211.616C398.758,205.856 405.654,200.056 417.431,197.697C409.378,193.525 409.451,187.101 418.652,182.482C427.853,177.863 443.479,176.405 455.43,178.62Z" style="fill:white;stroke:rgb(112,112,112);stroke-width:1.31px;"/>
        </g>
        <g transform="matrix(0.76492,0,0,0.761738,24.8985,60.9643)">
            <circle cx="132.754" cy="195.159" r="35.489" style="fill:white;stroke:rgb(112,112,112);stroke-width:1.31px;"/>
        </g>
        <g transform="matrix(1,0,0,1,-2.04492,4.54102)">
            <rect x="26.354" y="52.878" width="518.641" height="518.641" style="fill:white;fill-opacity:0;stroke:rgb(112,112,112);stroke-opacity:0;stroke-width:1px;"/>
        </g>
    </g>
</svg>