<svg width="120" height="120" viewBox="0 0 352 352" version="1.1" xmlns="http://www.w3.org/2000/svg" xmlns:xlink="http://www.w3.org/1999/xlink" xml:space="preserve" xmlns:serif="http://www.serif.com/" style="fill-rule:evenodd;clip-rule:evenodd;stroke-linejoin:round;stroke-miterlimit:2;">
    <g transform="matrix(1,0,0,1,-86.5293,-163.271)">
        <g transform="matrix(0.920731,0,0,0.956142,40.4532,18.8894)">
            <rect x="50.043" y="151.005" width="382.16" height="368.007" style="fill:rgb(105,105,105);fill-opacity:0;"/>
        </g>
        <g transform="matrix(0.507485,0,0,0.507485,85.0966,199.635)">
            <g transform="matrix(0.000486102,-0.84375,0.205357,0.00011831,252.617,684.69)">
                <path d="M600,332L376,332L432,108L544,108L600,332Z" style="fill:rgb(112,112,112);"/>
            </g>
            <g transform="matrix(1.26452,-2.47563e-17,2.53189e-17,-1.5,-89.7677,684.5)">
                <path d="M604,283L294,283L294,239L334.22,239L348.021,263L364.229,239L378.482,251L393.548,239L405.864,256.333L424.076,239L437.014,267L452.08,239L464.657,253L477.275,239L492.487,257.667L507.812,239L517.676,248.333L526.5,239L604,283Z" style="fill:rgb(112,112,112);"/>
            </g>
            <g transform="matrix(1.25161,0,0,0.545455,-86.9742,93.6364)">
                <path d="M616.784,284.833L294,283L294,239L526.5,239L616.784,284.833Z" style="fill:rgb(112,112,112);"/>
            </g>
            <g transform="matrix(1.70414,0,0,1.5382,-219.467,-144.136)">
                <path d="M221.5,188C268.137,188 306,225.863 306,272.5C306,319.137 268.137,357 221.5,357C174.863,357 137,319.137 137,272.5C137,225.863 174.863,188 221.5,188ZM221.5,230.25C244.818,230.25 263.75,249.182 263.75,272.5C263.75,295.818 244.818,314.75 221.5,314.75C198.182,314.75 179.25,295.818 179.25,272.5C179.25,249.182 198.182,230.25 221.5,230.25Z" style="fill:rgb(112,112,112);"/>
            </g>
        </g>
    </g>
</svg>
