<svg width="25" height="25" viewBox="0 0 313 269" version="1.1" xmlns="http://www.w3.org/2000/svg" xmlns:xlink="http://www.w3.org/1999/xlink" xml:space="preserve" xmlns:serif="http://www.serif.com/" style="fill-rule:evenodd;clip-rule:evenodd;stroke-linecap:round;stroke-linejoin:round;stroke-miterlimit:1.5;">
    <g transform="matrix(1,0,0,1,-204.75,-159.01)">
        <circle cx="415.672" cy="260.718" r="96.708" style="fill:rgb(235,235,235);fill-opacity:0.16;stroke:rgb(113,113,113);stroke-width:10px;"/>
        <g transform="matrix(0.6191,0.785312,-0.620267,0.488987,398.713,47.7952)">
            <path d="M187.311,290.997C187.311,282.978 182.169,276.468 175.836,276.468C169.502,276.468 164.36,282.978 164.36,290.997L164.36,465.684C164.36,473.703 169.502,480.213 175.836,480.213C182.169,480.213 187.311,473.703 187.311,465.684L187.311,290.997Z" style="fill:rgb(235,235,235);fill-opacity:0.16;stroke:rgb(113,113,113);stroke-width:5.55px;"/>
        </g>
        <g transform="matrix(0.835476,0.549528,-0.785362,1.19403,253.489,-293.263)">
            <path d="M383.984,221.918C370.673,221.918 359.866,239.536 359.866,261.237C359.866,282.938 370.673,300.556 383.984,300.556C379.991,291.382 376.749,276.922 376.749,261.237C376.749,245.552 379.991,231.093 383.984,221.918Z" style="fill:rgb(114,114,114);fill-opacity:0.26;"/>
        </g>
        <g transform="matrix(-0.85292,-0.522041,0.679911,-1.11085,610.882,777.307)">
            <path d="M383.984,221.918C370.673,221.918 359.866,239.536 359.866,261.237C359.866,282.938 370.673,300.556 383.984,300.556C379.991,291.382 376.749,276.922 376.749,261.237C376.749,245.552 379.991,231.093 383.984,221.918Z" style="fill:rgb(114,114,114);fill-opacity:0.26;"/>
        </g>
    </g>
</svg>
